
<svg xmlns="http://www.w3.org/2000/svg" xmlns:xlink="http://www.w3.org/1999/xlink" viewBox="0 0 24 28.75" version="1.1" x="0px" y="0px"><title>25 -Green Onion- (Outline)</title><desc>Created with Sketch.</desc><g stroke="none" stroke-width="1" fill="none" fill-rule="evenodd"><g fill="#000000"><path d="M19.2097472,3.16960998 C19.509795,2.2626942 18.9920263,1.27354666 18.0625689,0.999752991 L15.4621843,0.231934485 C14.5525611,-0.0344748509 13.6008493,0.483226728 13.3322019,1.38991167 L12.1431032,5.40824483 C11.7173197,6.84762719 10.9387857,8.1570007 9.87789322,9.21789322 L5.83089322,13.2648932 C4.14171294,14.9540735 3.04658631,15.9343003 1.80187419,16.7913688 C1.66225117,16.8875535 1.52945776,16.9972848 1.40197366,17.1219041 C0.260895439,18.2373721 0.0321000575,20.0296026 0.879960755,21.3751206 C2.07618471,23.2728169 4.67077798,23.5474356 6.22210678,21.9961068 C6.36224228,21.8573904 6.48616022,21.7079379 6.59351458,21.5484851 C7.39129545,20.3701174 8.3181809,19.3283173 9.90739242,17.737821 L14.0960224,13.5501912 C15.1900301,12.4561834 16.5472881,11.6627202 18.0358743,11.2471753 L21.9184091,10.1610258 C23.013955,9.85403228 23.6316276,8.69464082 23.2743868,7.61489061 L22.7554665,6.04513176 C22.4722585,5.18590603 21.5689366,4.69477958 20.6922873,4.92472038 L18.4642257,5.53493069 L19.2097472,3.16960998 Z M17.4975909,9.32097417 C15.6780602,9.82890345 14.0189613,10.7988252 12.6818932,12.1358932 L8.49297763,16.3238088 C6.82024002,17.9978985 5.82396358,19.1176927 4.93592726,20.4293793 C4.90115162,20.4810254 4.86169881,20.5286079 4.8114554,20.5783489 C4.15965899,21.2301275 3.08077158,21.1159351 2.57195573,20.3087469 C2.23106533,19.7677686 2.32725885,19.0142527 2.80003659,18.5520859 C2.84694815,18.5062285 2.89179503,18.4691702 2.93630524,18.4385076 C4.30642513,17.4950874 5.47590644,16.4483071 7.24510678,14.6791068 L11.2921068,10.6321068 C12.588915,9.33529852 13.5405602,7.73477883 14.0609251,5.97565951 L15.1691099,2.2307591 L17.4964568,2.91795954 C17.3448522,2.87308881 17.2590496,2.71312939 17.304131,2.56276009 L16.0052528,6.68339002 C15.7672404,7.43853343 16.459521,8.15763206 17.2231612,7.94847855 L21.2101612,6.85647855 C21.0545266,6.89736116 20.9038482,6.81557898 20.8564195,6.67252221 L21.3755335,8.24286824 C21.3743467,8.23928145 17.4975909,9.32097417 17.4975909,9.32097417 Z"/><path d="M16.7775462,6.00061899 C14.0966738,6.49556719 11.9302415,7.49347395 9.7301241,9.37019103 C9.30994091,9.72861053 9.25987154,10.3597927 9.61829103,10.7799759 C9.97671053,11.2001591 10.6078927,11.2502285 11.0280759,10.891809 C12.9540606,9.24892924 14.7968523,8.4000985 17.1406538,7.96738101 C17.6837602,7.86711159 18.0427504,7.3455525 17.942481,6.80244617 C17.8422116,6.25933983 17.3206525,5.90034958 16.7775462,6.00061899 Z"/></g></g><text x="0" y="38" fill="#000000" font-size="5px" font-weight="bold" font-family="'Helvetica Neue', Helvetica, Arial-Unicode, Arial, Sans-serif">Created by Ben Davis</text><text x="0" y="43" fill="#000000" font-size="5px" font-weight="bold" font-family="'Helvetica Neue', Helvetica, Arial-Unicode, Arial, Sans-serif">from the Noun Project</text></svg>
